# 3ds Max Wavefront OBJ Exporter v0.97b - (c)2007 guruware
# File Created: 06.12.2016 23:42:05

mtllib tree_1.mtl

#
# object Sphere001
#

v  -0.3684 12.0688 -0.0268
v  -0.3129 10.0415 -3.8673
v  -2.6993 11.5396 -2.1177
v  -3.9326 10.9171 2.0640
v  -0.3129 10.5218 3.8494
v  2.6358 11.1446 1.6508
v  2.6289 11.1446 -1.6514
v  -3.4414 7.3891 -2.1177
v  -0.2020 7.5029 -4.2085
v  -3.8217 7.3891 2.0640
v  -0.2020 8.0163 4.0710
v  2.8554 8.5037 2.0640
v  3.0994 7.6166 -2.1177
v  -0.6059 5.7458 -0.2918
v  -0.1473 5.7602 -0.5567
v  -0.6059 5.7458 0.2381
v  -0.1473 5.7602 0.5030
v  0.3114 5.7746 0.2381
v  0.3114 5.7746 -0.2918
v  -0.1473 5.7602 -0.0268
v  3.8498 7.2503 -0.0268
v  3.1639 6.6588 -2.0076
v  2.5957 7.3220 -0.7470
v  1.8120 6.9659 1.1801
v  3.3324 6.5218 2.2107
v  4.9025 5.7726 0.9416
v  4.8993 5.7750 -0.9646
v  1.2800 6.1836 -1.2337
v  2.3239 5.0991 -1.7062
v  1.4696 6.3170 1.1801
v  2.5041 5.3345 2.3386
v  3.4760 4.4851 0.8808
v  3.5087 4.4415 -1.2337
v  1.5223 4.4355 -0.1798
v  1.7376 4.2811 -0.3327
v  1.5223 4.4355 0.1261
v  1.7376 4.2811 0.2790
v  1.9529 4.1268 0.1261
v  1.9529 4.1268 -0.1798
v  1.7376 4.2811 -0.0268
v  0.4644 3.2519 0.0308
v  0.3649 3.4842 -0.3170
v  1.5843 3.9408 0.2069
v  1.6735 3.8932 0.4542
v  0.2040 3.8601 -0.1842
v  1.5669 4.2055 0.1749
v  0.2040 3.8601 0.2457
v  1.6453 4.3215 0.4025
v  0.3649 3.4842 0.3786
v  1.7112 4.1285 0.5751
v  2.4412 5.0954 -0.2291
v  2.5981 5.0700 -0.0143
v  2.1982 5.1685 -0.1456
v  2.2048 5.1884 0.1208
v  2.4520 5.1275 0.2019
v  0.6765 -0.0245 0.0308
v  0.1499 -0.0245 -0.6939
v  0.1894 2.7251 -0.2659
v  0.6377 2.8134 0.0521
v  -0.7020 -0.0245 -0.4171
v  -0.2585 2.8975 0.0163
v  -0.7020 -0.0245 0.4787
v  -0.0869 3.0924 0.5088
v  0.1499 -0.0245 0.7555
v  0.4669 3.0405 0.5310
v  -0.0077 5.8029 -0.5107
v  0.3190 5.8572 -0.0632
v  -0.5363 5.7856 -0.3368
v  -0.5363 5.8293 0.2183
v  -0.0077 5.8736 0.3873
v  0.0316 3.9481 0.4282
v  0.1869 4.3454 0.4820
v  -0.7372 4.0715 1.5023
v  -0.9206 3.8773 1.4963
v  -0.1062 4.6236 0.3354
v  -0.8646 4.3046 1.5307
v  -0.4427 4.3983 0.1909
v  -1.1268 4.2545 1.5422
v  -0.3575 3.9808 0.2483
v  -1.1614 3.9904 1.5210
v  -1.2484 4.9655 2.5963
v  -1.4331 4.7859 2.6673
v  -1.3080 5.0526 2.3508
v  -1.5295 4.9269 2.2701
v  -1.6068 4.7621 2.4657
v  -3.0382 6.8588 2.2031
v  -1.4522 7.2678 1.9961
v  -2.3144 6.7886 1.3811
v  -3.1141 5.4333 1.0934
v  -3.9442 5.2738 2.2497
v  -3.3026 6.0705 3.5217
v  -2.1720 6.9691 3.4782
v  -1.2358 6.0100 1.0559
v  -0.7983 6.0852 2.1664
v  -2.7695 5.0029 1.1659
v  -3.3373 4.3545 2.2604
v  -2.3893 4.9808 3.2025
v  -1.1262 5.9683 3.1969
v  -1.2344 4.7657 1.9938
v  -1.1386 4.8404 2.1913
v  -1.4159 4.6215 2.0003
v  -1.5015 4.5521 2.2042
v  -1.4057 4.6268 2.4017
v  -1.2243 4.7710 2.3952
v  -1.3201 4.6963 2.1978
# 105 vertices

vn 0.2689 0.7835 -0.5602
vn -0.3536 0.9317 0.0828
vn -0.0953 0.8729 0.4784
vn 0.1119 0.8731 0.4746
vn 0.3959 0.9183 -0.0008
vn 0.0342 0.8106 -0.5846
vn -0.5484 0.0672 -0.8335
vn -0.5429 0.0604 -0.8376
vn -0.9575 -0.0301 -0.2869
vn -0.9885 0.1211 -0.0901
vn -0.4362 0.0403 0.8989
vn -0.4829 -0.0152 0.8756
vn 0.5695 0.1322 0.8113
vn 0.5367 0.0762 0.8403
vn 0.9944 0.1055 -0.0021
vn 0.9965 0.0735 0.0393
vn 0.5664 0.1032 -0.8176
vn 0.5265 0.1367 -0.8391
vn -0.3058 -0.7983 -0.5188
vn -0.2758 -0.8075 -0.5215
vn -0.5959 -0.8013 -0.0534
vn -0.6240 -0.7814 -0.0000
vn -0.1873 -0.7450 0.6402
vn -0.2758 -0.8075 0.5215
vn 0.5122 -0.6336 0.5798
vn 0.3750 -0.6969 0.6113
vn 0.7302 -0.6428 0.2314
vn 0.8274 -0.5616 0.0000
vn 0.3547 -0.7796 -0.5162
vn 0.3364 -0.7712 -0.5404
vn 0.0314 -0.9995 -0.0000
vn 0.3321 0.8294 -0.4493
vn -0.0416 0.9736 0.2246
vn 0.0867 0.9035 0.4196
vn 0.7093 0.5705 0.4139
vn 0.8850 0.4655 -0.0007
vn 0.6781 0.5705 -0.4633
vn -0.4678 0.6002 -0.6488
vn -0.3860 0.0186 -0.9223
vn -0.8979 0.3405 -0.2789
vn -0.7655 0.6433 0.0116
vn -0.4494 0.2937 0.8436
vn -0.5814 0.2205 0.7831
vn 0.4212 -0.3699 0.8281
vn 0.6726 -0.2854 0.6827
vn 0.7959 -0.6054 -0.0024
vn 0.7764 -0.6296 0.0300
vn 0.3512 -0.2635 -0.8985
vn 0.3055 -0.0914 -0.9478
vn -0.7387 -0.3379 -0.5832
vn -0.7403 -0.3355 -0.5826
vn -0.9947 -0.0624 0.0822
vn -0.9940 -0.1090 -0.0000
vn -0.8441 -0.2428 0.4781
vn -0.7215 -0.2802 0.6332
vn -0.0528 -0.7951 0.6041
vn -0.2880 -0.7336 0.6155
vn 0.2765 -0.9605 0.0316
vn 0.2969 -0.9549 0.0000
vn -0.2640 -0.6924 -0.6715
vn -0.2496 -0.7187 -0.6490
vn -0.7012 -0.7130 -0.0000
vn 0.5463 -0.5313 -0.6475
vn 0.6231 -0.6691 -0.4052
vn 0.1515 0.2917 -0.9444
vn 0.4191 -0.0562 -0.9062
vn -0.3932 0.9194 0.0000
vn -0.1403 0.8354 -0.5314
vn -0.2476 0.1664 0.9545
vn -0.2914 0.4686 0.8339
vn 0.2429 -0.6785 0.6933
vn 0.0963 -0.3597 0.9281
vn 0.7504 -0.5177 -0.4109
vn 0.6398 -0.5283 -0.5582
vn -0.2817 -0.1001 -0.9543
vn -0.3497 -0.0715 -0.9341
vn -0.9051 0.4249 0.0123
vn -0.9055 0.4238 -0.0211
vn -0.3866 0.4317 0.8149
vn -0.1954 0.3132 0.9294
vn 0.7881 -0.2901 0.5429
vn 0.7588 -0.2415 0.6049
vn -0.9523 -0.3051 -0.0000
vn -0.9523 -0.3051 0.0000
vn 0.3562 0.9287 -0.1031
vn 0.8075 0.0651 -0.5863
vn 0.5767 0.0151 -0.8168
vn -0.3047 0.1337 -0.9430
vn -0.4899 0.0996 -0.8661
vn -0.9909 0.1349 -0.0000
vn -0.9540 0.0662 0.2925
vn -0.3074 0.0716 0.9489
vn -0.0401 -0.0016 0.9992
vn 0.8089 0.0117 0.5878
vn 0.9300 -0.0430 0.3650
vn 0.5819 -0.0151 -0.8131
vn 0.8031 0.0518 -0.5935
vn -0.5721 -0.1176 -0.8117
vn -0.3096 -0.0722 -0.9481
vn -0.9258 -0.0904 0.3669
vn -0.9969 -0.0778 0.0075
vn -0.0353 0.0323 0.9989
vn -0.3079 0.0342 0.9508
vn 0.9537 0.0890 0.2874
vn 0.8062 0.1269 0.5778
vn -0.0115 -0.9999 -0.0000
vn -0.0115 -0.9999 0.0000
vn -0.0680 0.9920 -0.1068
vn 0.7606 -0.2705 0.5903
vn 0.6749 -0.4770 0.5630
vn 0.5358 0.6289 0.5634
vn 0.6849 0.2168 0.6957
vn -0.6106 0.7659 -0.2014
vn -0.2300 0.9533 0.1957
vn -0.8325 -0.1835 -0.5228
vn -0.8935 0.1038 -0.4369
vn -0.0626 -0.9888 -0.1352
vn -0.5383 -0.7769 -0.3266
vn 0.5628 -0.4034 0.7215
vn 0.6854 -0.3242 0.6520
vn 0.9268 0.3729 0.0435
vn 0.9119 0.4097 -0.0252
vn -0.1759 0.5596 -0.8099
vn -0.1485 0.5760 -0.8039
vn -0.8451 0.1047 -0.5242
vn -0.9029 -0.0666 -0.4247
vn -0.4028 -0.7102 0.5773
vn -0.4964 -0.6863 0.5316
vn 0.4164 -0.0256 -0.9088
vn -0.6414 0.6151 0.4586
vn -0.3428 0.8455 -0.4095
vn -0.6680 0.3836 -0.6377
vn -0.7971 0.3170 -0.5139
vn -0.9156 0.3798 0.1322
vn -0.6715 0.6327 0.3857
vn -0.3094 0.9450 0.1056
vn 0.2340 0.4897 -0.8399
vn 0.8719 0.3194 -0.3711
vn 0.2642 0.0380 -0.9637
vn -0.1756 0.1176 -0.9774
vn -0.7265 -0.3599 -0.5854
vn -0.6062 -0.4389 -0.6633
vn -0.5474 -0.4832 0.6833
vn -0.5536 -0.2638 0.7899
vn 0.1399 -0.0937 0.9857
vn 0.1371 -0.1244 0.9827
vn 0.7906 0.3756 0.4836
vn 0.7810 0.5315 0.3280
vn 0.9204 -0.1822 -0.3460
vn 0.9193 -0.1816 -0.3492
vn 0.3355 -0.4430 -0.8314
vn 0.4387 -0.4306 -0.7887
vn 0.0901 -0.7982 -0.5957
vn -0.0798 -0.8922 -0.4445
vn 0.0983 -0.7874 0.6085
vn 0.1353 -0.9069 0.3991
vn 0.4438 -0.4126 0.7955
vn 0.4531 -0.3911 0.8011
vn 0.9455 -0.1775 0.2728
vn 0.9342 -0.1946 0.2990
vn 0.7351 -0.6779 -0.0066
# 161 vertex normals

vt 0.0005 0.8481 0.0000
vt 0.0005 0.6362 0.0000
vt 0.1064 0.6362 0.0000
vt 0.1064 0.8481 0.0000
vt 0.2124 0.6362 0.0000
vt 0.2124 0.8481 0.0000
vt 0.3183 0.6362 0.0000
vt 0.3183 0.8481 0.0000
vt 0.4243 0.6362 0.0000
vt 0.4243 0.8481 0.0000
vt 0.5302 0.6362 0.0000
vt 0.5302 0.8481 0.0000
vt 0.6362 0.6362 0.0000
vt 0.1064 0.4243 0.0000
vt 0.0005 0.4243 0.0000
vt 0.2124 0.4243 0.0000
vt 0.3183 0.4243 0.0000
vt 0.4243 0.4243 0.0000
vt 0.5302 0.4243 0.0000
vt 0.6362 0.4243 0.0000
vt 0.1064 0.2124 0.0000
vt 0.0005 0.2124 0.0000
vt 0.2124 0.2124 0.0000
vt 0.3183 0.2124 0.0000
vt 0.4243 0.2124 0.0000
vt 0.5302 0.2124 0.0000
vt 0.6362 0.2124 0.0000
vt 0.0005 0.0005 0.0000
vt 0.1064 0.0005 0.0000
vt 0.2124 0.0005 0.0000
vt 0.3183 0.0005 0.0000
vt 0.4243 0.0005 0.0000
vt 0.5302 0.0005 0.0000
vt 0.6376 0.4277 0.0000
vt 0.6376 0.3209 0.0000
vt 0.6910 0.3209 0.0000
vt 0.6910 0.4277 0.0000
vt 0.7444 0.3209 0.0000
vt 0.7444 0.4277 0.0000
vt 0.7978 0.3209 0.0000
vt 0.7978 0.4277 0.0000
vt 0.8512 0.3209 0.0000
vt 0.8512 0.4277 0.0000
vt 0.9046 0.3209 0.0000
vt 0.9046 0.4277 0.0000
vt 0.9580 0.3209 0.0000
vt 0.6910 0.2141 0.0000
vt 0.6376 0.2141 0.0000
vt 0.7444 0.2141 0.0000
vt 0.7978 0.2141 0.0000
vt 0.8512 0.2141 0.0000
vt 0.9046 0.2141 0.0000
vt 0.9580 0.2141 0.0000
vt 0.6910 0.1073 0.0000
vt 0.6376 0.1073 0.0000
vt 0.7444 0.1073 0.0000
vt 0.7978 0.1073 0.0000
vt 0.8512 0.1073 0.0000
vt 0.9046 0.1073 0.0000
vt 0.9580 0.1073 0.0000
vt 0.6376 0.0005 0.0000
vt 0.6910 0.0005 0.0000
vt 0.7444 0.0005 0.0000
vt 0.7978 0.0005 0.0000
vt 0.8512 0.0005 0.0000
vt 0.9046 0.0005 0.0000
vt 0.0660 0.8897 0.0000
vt 0.0863 0.8897 0.0000
vt 0.0863 0.9405 0.0000
vt 0.0660 0.9405 0.0000
vt 0.1067 0.8897 0.0000
vt 0.1067 0.9405 0.0000
vt 0.0051 0.8897 0.0000
vt 0.0254 0.8897 0.0000
vt 0.0254 0.9405 0.0000
vt 0.0051 0.9405 0.0000
vt 0.0457 0.8897 0.0000
vt 0.0457 0.9405 0.0000
vt 0.0863 0.9913 0.0000
vt 0.0660 0.9913 0.0000
vt 0.1067 0.9913 0.0000
vt 0.0254 0.9913 0.0000
vt 0.0051 0.9913 0.0000
vt 0.0457 0.9913 0.0000
vt 0.2229 0.9126 0.0000
vt 0.2159 0.9340 0.0000
vt 0.2341 0.9472 0.0000
vt 0.2454 0.9126 0.0000
vt 0.2523 0.9340 0.0000
vt 0.8614 0.7338 0.0000
vt 0.8738 0.7338 0.0000
vt 0.8776 0.7456 0.0000
vt 0.8576 0.7456 0.0000
vt 0.8676 0.7529 0.0000
vt 0.7933 0.7705 0.0000
vt 0.8391 0.7705 0.0000
vt 0.8391 0.8850 0.0000
vt 0.7933 0.8850 0.0000
vt 0.8849 0.7705 -0.0000
vt 0.8849 0.8850 -0.0000
vt 0.6559 0.7705 -0.0000
vt 0.7017 0.7705 0.0000
vt 0.7017 0.8850 0.0000
vt 0.6559 0.8850 -0.0000
vt 0.7475 0.7705 0.0000
vt 0.7475 0.8850 0.0000
vt 0.8391 0.9995 0.0000
vt 0.7933 0.9995 0.0000
vt 0.8849 0.9995 -0.0000
vt 0.7017 0.9995 0.0000
vt 0.6559 0.9995 -0.0000
vt 0.7475 0.9995 0.0000
vt 0.9389 0.0005 0.0000
vt 0.9263 0.0393 0.0000
vt 0.9593 0.0632 0.0000
vt 0.9797 0.0005 0.0000
vt 0.9923 0.0393 0.0000
vt 0.9617 0.0693 0.0000
vt 0.9870 0.0693 0.0000
vt 0.9949 0.0934 0.0000
vt 0.9538 0.0934 0.0000
vt 0.9744 0.1083 0.0000
vt 0.1710 0.8943 0.0000
vt 0.1911 0.8943 0.0000
vt 0.1911 0.9446 0.0000
vt 0.1710 0.9446 0.0000
vt 0.2113 0.8943 0.0000
vt 0.2113 0.9446 0.0000
vt 0.1105 0.8943 0.0000
vt 0.1307 0.8943 0.0000
vt 0.1307 0.9446 0.0000
vt 0.1105 0.9446 0.0000
vt 0.1508 0.8943 0.0000
vt 0.1508 0.9446 0.0000
vt 0.1911 0.9950 0.0000
vt 0.1710 0.9950 0.0000
vt 0.2113 0.9950 0.0000
vt 0.1307 0.9950 0.0000
vt 0.1105 0.9950 0.0000
vt 0.1508 0.9950 0.0000
vt 0.2230 0.9584 0.0000
vt 0.2159 0.9802 0.0000
vt 0.2344 0.9936 0.0000
vt 0.2458 0.9584 0.0000
vt 0.2529 0.9802 0.0000
vt 0.8571 0.4451 0.0000
vt 0.8703 0.4451 0.0000
vt 0.8743 0.4576 0.0000
vt 0.8530 0.4576 0.0000
vt 0.8637 0.4654 0.0000
vt 0.6376 0.7686 0.0000
vt 0.6376 0.6866 0.0000
vt 0.6786 0.6866 0.0000
vt 0.6786 0.7686 0.0000
vt 0.7196 0.6866 0.0000
vt 0.7196 0.7686 0.0000
vt 0.7606 0.6866 0.0000
vt 0.7606 0.7686 0.0000
vt 0.8016 0.6866 0.0000
vt 0.8016 0.7686 0.0000
vt 0.8427 0.6866 0.0000
vt 0.8427 0.7686 0.0000
vt 0.8837 0.6866 0.0000
vt 0.6786 0.6046 0.0000
vt 0.6376 0.6046 0.0000
vt 0.7196 0.6046 0.0000
vt 0.7606 0.6046 0.0000
vt 0.8016 0.6046 0.0000
vt 0.8427 0.6046 0.0000
vt 0.8837 0.6046 0.0000
vt 0.6786 0.5225 0.0000
vt 0.6376 0.5225 0.0000
vt 0.7196 0.5225 0.0000
vt 0.7606 0.5225 0.0000
vt 0.8016 0.5225 0.0000
vt 0.8427 0.5225 0.0000
vt 0.8837 0.5225 0.0000
vt 0.6376 0.4405 0.0000
vt 0.6786 0.4405 0.0000
vt 0.7196 0.4405 0.0000
vt 0.7606 0.4405 0.0000
vt 0.8016 0.4405 0.0000
vt 0.8427 0.4405 0.0000
# 183 texture coords

g Sphere001
usemtl Material__25
s off
f 1/1/1 2/2/1 3/3/1 
f 1/4/2 3/3/2 4/5/2 
f 1/6/3 4/5/3 5/7/3 
f 1/8/4 5/7/4 6/9/4 
f 1/10/5 6/9/5 7/11/5 
f 1/12/6 7/11/6 2/13/6 
f 8/14/7 3/3/7 2/2/7 
f 2/2/8 9/15/8 8/14/8 
f 10/16/9 4/5/9 3/3/9 
f 3/3/10 8/14/10 10/16/10 
f 11/17/11 5/7/11 4/5/11 
f 4/5/12 10/16/12 11/17/12 
f 12/18/13 6/9/13 5/7/13 
f 5/7/14 11/17/14 12/18/14 
f 13/19/15 7/11/15 6/9/15 
f 6/9/16 12/18/16 13/19/16 
f 9/20/17 2/13/17 7/11/17 
f 7/11/18 13/19/18 9/20/18 
f 14/21/19 8/14/19 9/15/19 
f 9/15/20 15/22/20 14/21/20 
f 16/23/21 10/16/21 8/14/21 
f 8/14/22 14/21/22 16/23/22 
f 17/24/23 11/17/23 10/16/23 
f 10/16/24 16/23/24 17/24/24 
f 18/25/25 12/18/25 11/17/25 
f 11/17/26 17/24/26 18/25/26 
f 19/26/27 13/19/27 12/18/27 
f 12/18/28 18/25/28 19/26/28 
f 15/27/29 9/20/29 13/19/29 
f 13/19/30 19/26/30 15/27/30 
f 20/28/31 14/21/31 15/22/31 
f 20/29/31 16/23/31 14/21/31 
f 20/30/31 17/24/31 16/23/31 
f 20/31/31 18/25/31 17/24/31 
f 20/32/31 19/26/31 18/25/31 
f 20/33/31 15/27/31 19/26/31 
f 21/34/32 22/35/32 23/36/32 
f 21/37/33 23/36/33 24/38/33 
f 21/39/34 24/38/34 25/40/34 
f 21/41/35 25/40/35 26/42/35 
f 21/43/36 26/42/36 27/44/36 
f 21/45/37 27/44/37 22/46/37 
f 28/47/38 23/36/38 22/35/38 
f 22/35/39 29/48/39 28/47/39 
f 30/49/40 24/38/40 23/36/40 
f 23/36/41 28/47/41 30/49/41 
f 31/50/42 25/40/42 24/38/42 
f 24/38/43 30/49/43 31/50/43 
f 32/51/44 26/42/44 25/40/44 
f 25/40/45 31/50/45 32/51/45 
f 33/52/46 27/44/46 26/42/46 
f 26/42/47 32/51/47 33/52/47 
f 29/53/48 22/46/48 27/44/48 
f 27/44/49 33/52/49 29/53/49 
f 34/54/50 28/47/50 29/48/50 
f 29/48/51 35/55/51 34/54/51 
f 36/56/52 30/49/52 28/47/52 
f 28/47/53 34/54/53 36/56/53 
f 37/57/54 31/50/54 30/49/54 
f 30/49/55 36/56/55 37/57/55 
f 38/58/56 32/51/56 31/50/56 
f 31/50/57 37/57/57 38/58/57 
f 39/59/58 33/52/58 32/51/58 
f 32/51/59 38/58/59 39/59/59 
f 35/60/60 29/53/60 33/52/60 
f 33/52/61 39/59/61 35/60/61 
f 40/61/62 34/54/62 35/55/62 
f 40/62/62 36/56/62 34/54/62 
f 40/63/62 37/57/62 36/56/62 
f 40/64/62 38/58/62 37/57/62 
f 40/65/62 39/59/62 38/58/62 
f 40/66/62 35/60/62 39/59/62 
usemtl Material__26
f 41/67/63 42/68/63 43/69/63 
f 43/69/64 44/70/64 41/67/64 
f 42/68/65 45/71/65 46/72/65 
f 46/72/66 43/69/66 42/68/66 
f 45/73/67 47/74/67 48/75/67 
f 48/75/68 46/76/68 45/73/68 
f 47/74/69 49/77/69 50/78/69 
f 50/78/70 48/75/70 47/74/70 
f 49/77/71 41/67/71 44/70/71 
f 44/70/72 50/78/72 49/77/72 
f 44/70/73 43/69/73 51/79/73 
f 51/79/74 52/80/74 44/70/74 
f 43/69/75 46/72/75 53/81/75 
f 53/81/76 51/79/76 43/69/76 
f 46/76/77 48/75/77 54/82/77 
f 54/82/78 53/83/78 46/76/78 
f 48/75/79 50/78/79 55/84/79 
f 55/84/80 54/82/80 48/75/80 
f 50/78/81 44/70/81 52/80/81 
f 52/80/82 55/84/82 50/78/82 
f 45/85/83 42/86/83 41/87/83 
f 47/88/84 45/85/84 41/87/84 
f 49/89/84 47/88/84 41/87/84 
f 53/90/85 54/91/85 55/92/85 
f 51/93/85 53/90/85 55/92/85 
f 52/94/85 51/93/85 55/92/85 
f 56/95/86 57/96/86 58/97/86 
f 58/97/87 59/98/87 56/95/87 
f 57/96/88 60/99/88 61/100/88 
f 61/100/89 58/97/89 57/96/89 
f 60/101/90 62/102/90 63/103/90 
f 63/103/91 61/104/91 60/101/91 
f 62/102/92 64/105/92 65/106/92 
f 65/106/93 63/103/93 62/102/93 
f 64/105/94 56/95/94 59/98/94 
f 59/98/95 65/106/95 64/105/95 
f 59/98/96 58/97/96 66/107/96 
f 66/107/97 67/108/97 59/98/97 
f 58/97/98 61/100/98 68/109/98 
f 68/109/99 66/107/99 58/97/99 
f 61/104/100 63/103/100 69/110/100 
f 69/110/101 68/111/101 61/104/101 
f 63/103/102 65/106/102 70/112/102 
f 70/112/103 69/110/103 63/103/103 
f 65/106/104 59/98/104 67/108/104 
f 67/108/105 70/112/105 65/106/105 
f 60/113/106 57/114/106 56/115/106 
f 62/116/106 60/113/106 56/115/106 
f 64/117/107 62/116/107 56/115/107 
f 68/118/108 69/119/108 70/120/108 
f 66/121/108 68/118/108 70/120/108 
f 67/122/108 66/121/108 70/120/108 
f 71/123/109 72/124/109 73/125/109 
f 73/125/110 74/126/110 71/123/110 
f 72/124/111 75/127/111 76/128/111 
f 76/128/112 73/125/112 72/124/112 
f 75/129/113 77/130/113 78/131/113 
f 78/131/114 76/132/114 75/129/114 
f 77/130/115 79/133/115 80/134/115 
f 80/134/116 78/131/116 77/130/116 
f 79/133/117 71/123/117 74/126/117 
f 74/126/118 80/134/118 79/133/118 
f 74/126/119 73/125/119 81/135/119 
f 81/135/120 82/136/120 74/126/120 
f 73/125/121 76/128/121 83/137/121 
f 83/137/122 81/135/122 73/125/122 
f 76/132/123 78/131/123 84/138/123 
f 84/138/124 83/139/124 76/132/124 
f 78/131/125 80/134/125 85/140/125 
f 85/140/126 84/138/126 78/131/126 
f 80/134/127 74/126/127 82/136/127 
f 82/136/128 85/140/128 80/134/128 
f 75/141/129 72/142/129 71/143/129 
f 77/144/129 75/141/129 71/143/129 
f 79/145/129 77/144/129 71/143/129 
f 83/146/130 84/147/130 85/148/130 
f 81/149/130 83/146/130 85/148/130 
f 82/150/130 81/149/130 85/148/130 
usemtl Material__25
f 86/151/131 87/152/131 88/153/131 
f 86/154/132 88/153/132 89/155/132 
f 86/156/133 89/155/133 90/157/133 
f 86/158/134 90/157/134 91/159/134 
f 86/160/135 91/159/135 92/161/135 
f 86/162/136 92/161/136 87/163/136 
f 93/164/137 88/153/137 87/152/137 
f 87/152/138 94/165/138 93/164/138 
f 95/166/139 89/155/139 88/153/139 
f 88/153/140 93/164/140 95/166/140 
f 96/167/141 90/157/141 89/155/141 
f 89/155/142 95/166/142 96/167/142 
f 97/168/143 91/159/143 90/157/143 
f 90/157/144 96/167/144 97/168/144 
f 98/169/145 92/161/145 91/159/145 
f 91/159/146 97/168/146 98/169/146 
f 94/170/147 87/163/147 92/161/147 
f 92/161/148 98/169/148 94/170/148 
f 99/171/149 93/164/149 94/165/149 
f 94/165/150 100/172/150 99/171/150 
f 101/173/151 95/166/151 93/164/151 
f 93/164/152 99/171/152 101/173/152 
f 102/174/153 96/167/153 95/166/153 
f 95/166/154 101/173/154 102/174/154 
f 103/175/155 97/168/155 96/167/155 
f 96/167/156 102/174/156 103/175/156 
f 104/176/157 98/169/157 97/168/157 
f 97/168/158 103/175/158 104/176/158 
f 100/177/159 94/170/159 98/169/159 
f 98/169/160 104/176/160 100/177/160 
f 105/178/161 99/171/161 100/172/161 
f 105/179/161 101/173/161 99/171/161 
f 105/180/161 102/174/161 101/173/161 
f 105/181/161 103/175/161 102/174/161 
f 105/182/161 104/176/161 103/175/161 
f 105/183/161 100/177/161 104/176/161 
# 186 faces

